<svg width="91" height="24" viewBox="0 0 91 24" fill="none" xmlns="http://www.w3.org/2000/svg">
<g opacity="0.75">
<path d="M0 11.9426C0 18.5347 5.08781 23.6667 11.5029 23.6667C15.9713 23.6667 18.6701 21.8086 20.4397 20.0389C21.4573 18.9771 22.2094 17.7383 22.7846 16.3668H17.918C17.5198 16.942 17.0331 17.4729 16.458 17.9153C15.4404 18.7559 13.8035 19.4637 11.5029 19.4637C8.18474 19.4637 5.35326 17.2516 4.64539 13.4911H23.0058V11.9426C23.0058 5.35059 17.9179 0.218536 11.5029 0.218536C5.08781 0.218536 0 5.35059 0 11.9426ZM4.8666 9.73054C5.57447 6.36816 8.40595 4.42151 11.5029 4.42151C15.5289 4.42151 17.6525 7.07602 18.1392 9.73054H4.8666Z" fill="white"/>
<path d="M24.9777 0.660955L31.1716 23.2243H41.126L47.3199 0.660955H42.4533L37.5867 19.0213H34.7109L29.8443 0.660955H24.9777Z" fill="white"/>
<path d="M49.3057 11.9426C49.3057 18.5347 54.3935 23.6667 60.8085 23.6667C65.277 23.6667 67.9757 21.8086 69.7454 20.0389C70.763 18.9771 71.5151 17.7383 72.0902 16.3668H67.2236C66.8254 16.942 66.3388 17.4729 65.7636 17.9153C64.7461 18.7559 63.1091 19.4637 60.8085 19.4637C57.4904 19.4637 54.6589 17.2516 53.9511 13.4911H72.3114V11.9426C72.3114 5.35059 67.2236 0.218536 60.8085 0.218536C54.3935 0.218536 49.3057 5.35059 49.3057 11.9426ZM54.1723 9.73054C54.8801 6.36816 57.7116 4.42151 60.8085 4.42151C64.8346 4.42151 66.9582 7.07602 67.4448 9.73054H54.1723Z" fill="white"/>
<path d="M76.4955 23.2243H81.1409V11.0578C81.1409 7.29723 83.7954 4.86393 87.3347 4.86393H90.2105V0.439745H87.5559C85.2996 0.439745 83.7954 1.32458 82.7778 2.20942C82.2027 2.74032 81.716 3.31547 81.3621 3.97909H81.1409V0.660955H76.4955V23.2243Z" fill="white"/>
</g>
</svg>
